<svg id="Слой_1" data-name="Слой 1" xmlns="http://www.w3.org/2000/svg" viewBox="32.53 63.75 84.92 83.52"><defs><style>.cls-1{fill-rule:evenodd;}</style></defs><title>Монтажная область 4</title><path class="cls-1" d="M90.62,147.24c-10.32,0-25-.52-34.79-.52-18.31,0-23.28-10.83-23.28-24.6s.27-29,.27-34.22c0-15.48,6.85-24.06,23.83-24.06,6.28,0,29.9-.06,37.94-.06,15.45,0,22.86,6.38,22.86,25.06,0,4.61-.34,13.24-.34,37.17C117.11,141.06,110,147.24,90.62,147.24ZM49,106.58l.14,25.6,12-.22-.69-10,.15-23.72-12.47.9Zm5.93-27.4c-9.12,0-9.56,13.87.15,13.87C63.94,93.05,64,79.18,54.92,79.18ZM88.77,94.41c-3.63.29-6.55,2.28-8.91,5l-1.22-5.06L69.37,96l.68,6.42.06,30.27,11.1-.52-.52-20c1.13-4.84,3.31-7.49,6.55-7.49,6.19,0,6.69,2.89,6.69,12.84,0,5.61-.5,14.9-.52,14.9l11,.11s.05-12.53.05-18.71C104.51,99.45,99.89,93.54,88.77,94.41Z"/></svg>