<svg id="Слой_1" data-name="Слой 1" xmlns="http://www.w3.org/2000/svg" viewBox="23.67 61.1 104.48 86.15"><defs><style>.cls-1{fill-rule:evenodd;}</style></defs><title>Монтажная область 2</title><path class="cls-1" d="M113.29,124.32l6-2.08c9.76,2.65,11.87,16.38,4.19,25C122.89,139.24,105.69,138.28,113.29,124.32ZM91.19,62.44l3.22-1.32s22.62,41,23.78,55.21l-7.91,3C101.6,108.46,91.19,62.44,91.19,62.44Zm11,61.68c-5.75,12.72-17.71,22.38-35.81,22.38-58.08,0-55.45-83-.93-83a48.61,48.61,0,0,1,5.63.32c13.38,2.4,15.27,12.51,12.68,21.53-3.61,12.58-3.91,18.6,6.95,18.81l5,.06Zm-47.11,9.93a8.92,8.92,0,0,0,5.1-11.66c-1.46-4-5.73-5.68-8.62-4.53a6,6,0,0,0-3.79,4.24,5,5,0,0,0,1.49,4.27c1.76,1.73,5.91-.81,3.51-3.62l1-.88a4.68,4.68,0,0,1,2.14,2c1.21,2.41,0,5.14-2.89,6.22-4,1.48-7.19-2-8.45-4.48l-3,1.67C43.9,133.49,49,136.47,55.08,134.05ZM40.21,104.44c-2.13,1.25-.74,5.92,2.59,4.33.14.28.42.87.59,1.2a4.68,4.68,0,0,1-2.52,1.54c-2.64.54-5-1.3-5.27-4.41-.39-4.26,3.8-6.42,6.52-7l-.85-3.28c-6.55.6-10.75,4.77-10,11.25a8.93,8.93,0,0,0,9.94,8c4.2-.39,7-4.06,6.61-7.16a6,6,0,0,0-3.12-4.75A4.94,4.94,0,0,0,40.21,104.44Zm31-24.67c-5.4-7.61-13.46-9-21.51-3.31-6.21,4.46-6.19,13-2.29,18.27s10.17,6.77,15.89,2.53C67.75,94,67.94,88.73,65,84.51a6.64,6.64,0,0,0-9.22-2,6.06,6.06,0,0,0-2.56,5.08,5,5,0,0,0,2.55,3.74c2.15,1.21,5.18-2.27,2.4-4.17.16-.24.44-.77.64-1.06a4.42,4.42,0,0,1,2.44,1.33c1.69,1.9,1.3,4.44-1.13,6.1-3.34,2.27-6.22,1.57-8.84-1.94C49,88.68,49,83.38,52.53,80.68c5.46-4.16,11.14-3.24,15,2,1.6,2.15,2.94,6,2.57,8.12.73.09,2.49.27,3.12.31A15.14,15.14,0,0,0,71.24,79.77Zm9.25,32.56c-9-2.53-13.32,11.11-3.69,13.8C85.59,128.59,89.49,114.84,80.49,112.33Z"/></svg>