<svg id="Слой_1" data-name="Слой 1" xmlns="http://www.w3.org/2000/svg" viewBox="21.35 76.4 107.28 71.35"><defs><style>.cls-1{fill-rule:evenodd;}</style></defs><title>Монтажная область 18</title><path class="cls-1" d="M93,101.43l-3-10.23-29.31.39-3.28,10.15-21.9,12.8L21.36,98.21S33.12,76.41,74,76.41s54.62,23.84,54.62,23.84l-13.48,14.38ZM65.18,111.69l.15,9.21-9.49.08,0-9.25Zm.38,22.88-9.76-.07,0-9.37,9.58,0Zm.08,4.47.14,8.61-10,.09,0-8.81Zm14.45-18.25-9.91.07-.06-9.2,9.82,0Zm.23,13.87-10-.06-.07-9.43,10,0Zm.22,12.86-10.17.09-.06-8.52,10.09.11Zm13.93-26.84-9.35.07L85,111.6l9.4,0Zm0,14.07-9.28-.06-.08-9.47,9.33,0Zm0,12.64-9.22.09-.07-8.23,9.26.1Z"/></svg>