<svg id="Слой_1" data-name="Слой 1" xmlns="http://www.w3.org/2000/svg" viewBox="21.57 81.02 106.88 66.85"><defs><style>.cls-1{fill-rule:evenodd;}</style></defs><title>Монтажная область 20</title><path class="cls-1" d="M117.65,125.93c-4.33,0-11.77-7.9-11.77-.51s0,10.32,0,13.76c0,6.38-2.5,8.48-9.69,8.48-1.79,0-5.9.19-12,.19s1.41-6.77,1.41-10.69c0-13.35-20.33-14-20.33.23,0,3.74,6.15,10.26,1.42,10.26s-12.95-.46-15-.42c-5.53.08-7.78-3-7.89-7.52-.08-3.56.16-6.38.16-14.17S37,125,32.51,125c-14.88,0-14.2-21.25-.24-21.25,4.4,0,11.78,9.06,11.78-.1S43.93,90,43.94,88.92c0-5.06,2-7.57,6.39-7.57,2.26,0,7.56-.25,9.42-.25,14.52,0,4,6.53,4,11.29,0,13.43,20.44,14.08,20.44-.23,0-4.8-7.3-11.13,3.47-11.13,3.39,0,9.7.16,11.12.16,5.16,0,7,3.39,7.07,8.08,0,1,0,6.52,0,14.63s6.93.61,11.5.61C132.4,104.51,131.72,125.93,117.65,125.93Z"/></svg>