<svg xmlns="http://www.w3.org/2000/svg" xmlns:xlink="http://www.w3.org/1999/xlink" viewBox="0 0 158.32 118.13"><defs><style>.cls-1{fill:none;}.cls-2{clip-path:url(#clip-path);}.cls-3{fill:#6c00cb;}.cls-4{clip-path:url(#clip-path-3);}</style><clipPath id="clip-path" transform="translate(9.05 9.34)"><path class="cls-1" d="M137.29,98.44H112.8a3.38,3.38,0,0,1-3.38-3.38h0V4.64a3.38,3.38,0,0,1,3.38-3.38h24.49a3.38,3.38,0,0,1,3.38,3.38h0V95.06a3.38,3.38,0,0,1-3.38,3.38Zm-109-1.17,40.6-80.79a3.38,3.38,0,0,0-1.5-4.54L45.5.94A3.38,3.38,0,0,0,41,2.44L.36,83.23a3.38,3.38,0,0,0,1.5,4.54l21.88,11A3.4,3.4,0,0,0,28.28,97.27ZM88.37,97,105.74,8.89a3.38,3.38,0,0,0-2.65-4L79.08.07a3.39,3.39,0,0,0-4,2.65h0L57.72,90.79a3.38,3.38,0,0,0,2.65,4l24,4.85a3.39,3.39,0,0,0,4-2.65Z"/></clipPath><clipPath id="clip-path-3" transform="translate(9.05 9.34)"><rect class="cls-1" x="-8.57" y="-8.54" width="157.78" height="116.77"/></clipPath></defs><g id="Calque_2" data-name="Calque 2"><g id="katman_1" data-name="katman 1"><g id="Group_7" data-name="Group 7"><path id="SVGID" class="cls-3" d="M137.29,98.44H112.8a3.38,3.38,0,0,1-3.38-3.38h0V4.64a3.38,3.38,0,0,1,3.38-3.38h24.49a3.38,3.38,0,0,1,3.38,3.38h0V95.06a3.38,3.38,0,0,1-3.38,3.38Zm-109-1.17,40.6-80.79a3.38,3.38,0,0,0-1.5-4.54L45.5.94A3.38,3.38,0,0,0,41,2.44L.36,83.23a3.38,3.38,0,0,0,1.5,4.54l21.88,11A3.4,3.4,0,0,0,28.28,97.27ZM88.37,97,105.74,8.89a3.38,3.38,0,0,0-2.65-4L79.08.07a3.39,3.39,0,0,0-4,2.65h0L57.72,90.79a3.38,3.38,0,0,0,2.65,4l24,4.85a3.39,3.39,0,0,0,4-2.65Z" transform="translate(9.05 9.34)"/><g class="cls-2"><g id="Group_6-2" data-name="Group 6"><g id="Group_5-2" data-name="Group 5"><g id="Group_4-2" data-name="Group 4"><rect id="SVGID-2" data-name="SVGID" class="cls-3" x="0.48" y="0.8" width="157.78" height="116.77"/><g class="cls-4"><g id="Group_3" data-name="Group 3"><g id="Group_2" data-name="Group 2"><rect id="SVGID-3" data-name="SVGID" class="cls-3" x="0.48" y="0.8" width="157.78" height="116.77"/><g class="cls-4"><g id="Group_1" data-name="Group 1"><rect id="Rectangle_1" data-name="Rectangle 1" class="cls-3" width="158.32" height="118.13"/></g></g></g></g></g></g></g></g></g></g></g></g></svg>